G04 Layer: TopLayer*
G04 EasyEDA v6.4.25, 2021-12-28T21:41:51+00:00*
G04 Gerber Generator version 0.2*
G04 Scale: 100 percent, Rotated: No, Reflected: No *
G04 Dimensions in millimeters *
G04 leading zeros omitted , absolute positions ,4 integer and 5 decimal *
%FSLAX45Y45*%
%MOMM*%

%ADD11C,0.6000*%
%ADD12C,1.9304*%
%ADD14C,1.7000*%
%ADD15R,1.7000X1.7000*%
%ADD17C,1.1989*%
%ADD18C,2.0000*%
%ADD19C,1.5011*%
%ADD20C,1.5240*%

%LPD*%
D11*
X1587500Y6299200D02*
G01*
X1841500Y6299200D01*
X6286500Y7048500D02*
G01*
X6286500Y8521700D01*
X6146800Y8661400D01*
X6159500Y8674100D01*
X6159500Y9334500D01*
X1587500Y6045200D02*
G01*
X1841500Y6045200D01*
X1841500Y6299200D02*
G01*
X3200400Y6299200D01*
X3556000Y6654800D01*
X3554984Y7183373D01*
X1841500Y6045200D02*
G01*
X3911600Y6045200D01*
X4318000Y6451600D01*
X4316984Y7183373D01*
X1587500Y5791200D02*
G01*
X1282700Y5791200D01*
X1003300Y6070600D01*
X1003300Y7171689D01*
X1014984Y7183373D01*
X1587500Y5791200D02*
G01*
X1841500Y5791200D01*
X6159500Y9334500D02*
G01*
X5702300Y9334500D01*
X4978400Y8610600D01*
X812800Y8610600D01*
X546100Y8343900D01*
X546100Y7652258D01*
X1014984Y7183373D01*
X5562600Y7485989D02*
G01*
X5562600Y7239000D01*
X5740400Y7061200D01*
X6273800Y7061200D01*
X6286500Y7048500D01*
X1358900Y7975600D02*
G01*
X1689100Y7975600D01*
X2070100Y7594600D01*
X4159758Y7594600D01*
X4570984Y7183373D01*
D12*
G01*
X1015009Y7183297D03*
G01*
X1269009Y7183297D03*
G01*
X1523009Y7183297D03*
G01*
X1777009Y7183297D03*
G01*
X2031009Y7183297D03*
G01*
X2285009Y7183297D03*
G01*
X2539009Y7183297D03*
G01*
X2793009Y7183297D03*
G01*
X3047009Y7183297D03*
G01*
X3301009Y7183297D03*
G01*
X3555009Y7183297D03*
G01*
X3809009Y7183297D03*
G01*
X4063009Y7183297D03*
G01*
X4317009Y7183297D03*
G01*
X4571009Y7183297D03*
G01*
X1015009Y4706289D03*
G01*
X1269009Y4706289D03*
G01*
X1523009Y4706289D03*
G01*
X1777009Y4706289D03*
G01*
X2031009Y4706289D03*
G01*
X2285009Y4706289D03*
G01*
X2539009Y4706289D03*
G01*
X2793009Y4706289D03*
G01*
X3047009Y4706289D03*
G01*
X3301009Y4706289D03*
G01*
X3555009Y4706289D03*
G01*
X3809009Y4706289D03*
G01*
X4063009Y4706289D03*
G01*
X4317009Y4706289D03*
G01*
X4571009Y4706289D03*
G36*
X1533905Y9020606D02*
G01*
X1533905Y9470593D01*
X1183894Y9470593D01*
X1183894Y9020606D01*
G37*
G36*
X1025905Y9020606D02*
G01*
X1025905Y9470593D01*
X675894Y9470593D01*
X675894Y9020606D01*
G37*
G36*
X1533905Y7750606D02*
G01*
X1533905Y8200593D01*
X1183894Y8200593D01*
X1183894Y7750606D01*
G37*
G36*
X1025905Y7750606D02*
G01*
X1025905Y8200593D01*
X675894Y8200593D01*
X675894Y7750606D01*
G37*
G36*
X3229356Y9046006D02*
G01*
X3229356Y9495993D01*
X2879343Y9495993D01*
X2879343Y9046006D01*
G37*
G36*
X2721356Y9046006D02*
G01*
X2721356Y9495993D01*
X2371343Y9495993D01*
X2371343Y9046006D01*
G37*
G36*
X3229356Y7776006D02*
G01*
X3229356Y8225993D01*
X2879343Y8225993D01*
X2879343Y7776006D01*
G37*
G36*
X2721356Y7776006D02*
G01*
X2721356Y8225993D01*
X2371343Y8225993D01*
X2371343Y7776006D01*
G37*
G36*
X4924806Y9033306D02*
G01*
X4924806Y9483293D01*
X4574793Y9483293D01*
X4574793Y9033306D01*
G37*
G36*
X4416806Y9033306D02*
G01*
X4416806Y9483293D01*
X4066793Y9483293D01*
X4066793Y9033306D01*
G37*
G36*
X4924806Y7763306D02*
G01*
X4924806Y8213293D01*
X4574793Y8213293D01*
X4574793Y7763306D01*
G37*
G36*
X4416806Y7763306D02*
G01*
X4416806Y8213293D01*
X4066793Y8213293D01*
X4066793Y7763306D01*
G37*
D14*
G01*
X1841500Y5537200D03*
D15*
G01*
X1587500Y6299200D03*
D14*
G01*
X1841500Y6299200D03*
G01*
X1587500Y6045200D03*
G01*
X1841500Y6045200D03*
G01*
X1587500Y5791200D03*
G01*
X1841500Y5791200D03*
G01*
X1587500Y5537200D03*
G36*
X6099556Y9394444D02*
G01*
X6219443Y9394444D01*
X6219443Y9274555D01*
X6099556Y9274555D01*
G37*
D17*
G01*
X6413500Y9334500D03*
G01*
X6667500Y9334500D03*
G01*
X6921500Y9334500D03*
D18*
G01*
X5631789Y4521200D03*
G01*
X6661810Y4521200D03*
D19*
G01*
X6286500Y7048500D03*
G01*
X6286500Y6286500D03*
D18*
G01*
X5562600Y7485989D03*
G01*
X5562600Y8516010D03*
G01*
X7493000Y7222109D03*
G01*
X7493000Y6062090D03*
D20*
X6655899Y5181600D02*
G01*
X6628300Y5181600D01*
X6503499Y5384800D02*
G01*
X6475900Y5384800D01*
X6808299Y5384800D02*
G01*
X6780700Y5384800D01*
M02*
