M48
METRIC,LZ,000.000
;FILE_FORMAT=3:3
;TYPE=PLATED
;Layer: Drill PTH
;EasyEDA v6.4.25, 2021-12-28T21:41:51+00:00
;10
;Gerber Generator version 0.2
;Holesize 1 = 0.600 mm
T01C0.600
;Holesize 2 = 0.798 mm
T02C0.798
;Holesize 3 = 0.900 mm
T03C0.900
;Holesize 4 = 1.000 mm
T04C1.000
;Holesize 5 = 1.101 mm
T05C1.101
;Holesize 6 = 1.200 mm
T06C1.200
%
G05
G90
T01
X066418Y051816G85X066424Y051816
X064894Y053848G85X064900Y053848
X067942Y053848G85X067948Y053848
T02
X061595Y093345
X064135Y093345
X066675Y093345
X069215Y093345
T03
X062865Y070485
X062865Y062865
T04
X010150Y071833G85X010150Y071833
X012690Y071833G85X012690Y071833
X015230Y071833G85X015230Y071833
X017770Y071833G85X017770Y071833
X020310Y071833G85X020310Y071833
X022850Y071833G85X022850Y071833
X025390Y071833G85X025390Y071833
X027930Y071833G85X027930Y071833
X030470Y071833G85X030470Y071833
X033010Y071833G85X033010Y071833
X035550Y071833G85X035550Y071833
X038090Y071833G85X038090Y071833
X040630Y071833G85X040630Y071833
X043170Y071833G85X043170Y071833
X045710Y071833G85X045710Y071833
X010150Y047063G85X010150Y047063
X012690Y047063G85X012690Y047063
X015230Y047063G85X015230Y047063
X017770Y047063G85X017770Y047063
X020310Y047063G85X020310Y047063
X022850Y047063G85X022850Y047063
X025390Y047063G85X025390Y047063
X027930Y047063G85X027930Y047063
X030470Y047063G85X030470Y047063
X033010Y047063G85X033010Y047063
X035550Y047063G85X035550Y047063
X038090Y047063G85X038090Y047063
X040630Y047063G85X040630Y047063
X043170Y047063G85X043170Y047063
X045710Y047063G85X045710Y047063
X056318Y045212
X066618Y045212
X055626Y074860
X055626Y085160
T05
X018415Y055372
X015875Y062992
X018415Y062992
X015875Y060452
X018415Y060452
X015875Y057912
X018415Y057912
X015875Y055372
T06
X013589Y092456
X008509Y092456
X013589Y079756
X008509Y079756
X030544Y092710
X025464Y092710
X030544Y080010
X025464Y080010
X047498Y092583
X042418Y092583
X047498Y079883
X042418Y079883
X074930Y072221
X074930Y060621
M30
